<svg width="100" height="30" viewBox="0 0 100 30" fill="none" xmlns="http://www.w3.org/2000/svg">
<g clip-path="url(#clip0_104_504)">
<path fill-rule="evenodd" clip-rule="evenodd" d="M62.0348 23.4616C56.2453 27.7276 47.8242 30.0001 40.5611 30.0001C30.3856 30.0001 21.2629 26.2588 14.3155 20.0351C13.7892 19.5457 14.2453 18.8813 14.9119 19.2658C22.3856 23.6015 31.6137 26.1889 41.1575 26.1889C47.5786 26.1889 54.6663 24.8603 61.1926 22.098C62.1748 21.7134 62.982 22.7623 62.0347 23.4616H62.0348Z" fill="#FF9900"/>
<path fill-rule="evenodd" clip-rule="evenodd" d="M64.4561 20.6994C63.7195 19.7553 59.5438 20.2448 57.6842 20.4896C57.1228 20.5595 57.0175 20.07 57.5438 19.7203C60.8772 17.3777 66.3158 18.0769 66.9473 18.8462C67.5789 19.6154 66.7719 25.0696 63.6486 27.6573C63.1575 28.0419 62.7012 27.8321 62.912 27.3077C63.614 25.5594 65.1929 21.6781 64.4561 20.6994Z" fill="#FF9900"/>
<path fill-rule="evenodd" clip-rule="evenodd" d="M57.7894 3.28723V1.01394C57.7855 0.939421 57.7973 0.864903 57.8241 0.795226C57.8509 0.72555 57.8921 0.662273 57.945 0.609507C57.998 0.556742 58.0615 0.515671 58.1314 0.48896C58.2013 0.462249 58.2761 0.450497 58.3509 0.454468H68.5264C68.6795 0.451255 68.8278 0.508071 68.9394 0.612696C69.0509 0.71732 69.1168 0.861396 69.1229 1.01394V2.93702C69.1229 3.2517 68.8422 3.67106 68.351 4.37064L63.0879 11.8532C65.0528 11.8182 67.1233 12.0979 68.8774 13.0766C69.2633 13.2864 69.3684 13.6361 69.4037 13.9507V16.3633C69.4037 16.713 69.0528 17.0973 68.6671 16.8878C65.5442 15.2444 61.3688 15.0696 57.9303 16.9228C57.5794 17.0976 57.1936 16.748 57.1936 16.3983V14.0908C57.1936 13.7412 57.1936 13.1121 57.5796 12.5524L63.6849 3.84617H58.386C58.2329 3.84939 58.0847 3.79264 57.9731 3.68813C57.8616 3.58362 57.7956 3.43968 57.7894 3.28723ZM20.7018 17.3776H17.6141C17.4757 17.3636 17.3458 17.3048 17.2443 17.21C17.1428 17.1152 17.0755 16.9898 17.0526 16.8531V1.04893C17.0587 0.896413 17.1246 0.752354 17.2361 0.647732C17.3477 0.54311 17.4959 0.486281 17.6491 0.489466H20.5263C20.6686 0.49161 20.8049 0.546541 20.9088 0.643525C21.0126 0.740509 21.0764 0.872581 21.0877 1.01394V3.07692H21.1578C21.8945 1.08394 23.3333 0.139894 25.228 0.139894C27.1579 0.139894 28.3859 1.08394 29.2281 3.07692C29.9647 1.08394 31.6842 0.139894 33.509 0.139894C34.8073 0.139894 36.2108 0.664361 37.088 1.88819C38.0702 3.21681 37.86 5.13989 37.86 6.85319V16.8532C37.8539 17.0057 37.788 17.1498 37.6765 17.2544C37.5649 17.359 37.4167 17.4158 37.2635 17.4127H34.2105C33.8947 17.3777 33.6491 17.133 33.6491 16.8532V8.46149C33.6491 7.79713 33.7192 6.11883 33.5789 5.48947C33.3334 4.44053 32.6667 4.12585 31.7544 4.12585C31.3516 4.13728 30.9609 4.26584 30.6305 4.49571C30.3 4.72557 30.0443 5.04671 29.8947 5.41957C29.5789 6.22372 29.614 7.55245 29.614 8.46149V16.8532C29.6079 17.0057 29.5421 17.1498 29.4305 17.2544C29.319 17.359 29.1707 17.4158 29.0176 17.4127H25.9299C25.6141 17.3777 25.3684 17.133 25.3684 16.8532V8.46149C25.3684 6.71319 25.6491 4.09085 23.4737 4.09085C21.2632 4.09085 21.3334 6.6083 21.3334 8.46149V16.8532C21.3113 17.0027 21.2347 17.1389 21.1181 17.2357C21.0016 17.3325 20.8534 17.383 20.7018 17.3777V17.3776ZM77.8948 0.139894C82.4913 0.139894 84.9825 4.05596 84.9825 9.05596C84.9825 13.8812 82.2457 17.7272 77.8948 17.7272C73.4035 17.7272 70.9474 13.8112 70.9474 8.91606C70.9123 3.98596 73.4035 0.139469 77.8948 0.139469V0.139894ZM77.8948 3.39159C75.614 3.39159 75.4737 6.50351 75.4737 8.42659C75.4737 10.3497 75.4386 14.4755 77.8597 14.4755C80.2457 14.4755 80.386 11.1538 80.386 9.12585C80.386 7.79713 80.3159 6.18883 79.9298 4.93C79.5789 3.81106 78.8772 3.39159 77.8948 3.39159ZM90.9123 17.3776H87.8246C87.5088 17.3426 87.2632 17.0979 87.2632 16.8181V0.978721C87.2825 0.834339 87.3535 0.701766 87.4631 0.605401C87.5727 0.509035 87.7135 0.455361 87.8597 0.454254H90.7369C90.8674 0.458839 90.9928 0.505706 91.0941 0.587743C91.1954 0.669779 91.2671 0.782509 91.2983 0.90883V3.32138H91.3685C92.2457 1.15351 93.4387 0.139572 95.579 0.139572C96.9474 0.139572 98.3158 0.628936 99.1931 1.99277C100 3.25149 100 5.38436 100 6.92287V16.8879C99.9789 17.0285 99.9062 17.1563 99.796 17.2467C99.6859 17.337 99.546 17.3835 99.4035 17.3772H96.3155C96.0349 17.3422 95.7892 17.1326 95.7541 16.8879V8.2867C95.7541 6.5384 95.9646 4.02074 93.8243 4.02074C93.0877 4.02074 92.3857 4.5101 92.0348 5.27947C91.6138 6.25819 91.5438 7.20255 91.5438 8.28649V16.8184C91.5241 16.972 91.4494 17.1133 91.3332 17.2161C91.2171 17.319 91.0675 17.3765 90.9122 17.3779L90.9123 17.3776ZM49.6844 9.82521C49.6844 11.014 49.7195 12.028 49.123 13.1124C48.6319 13.9866 47.8598 14.5111 46.9826 14.5111C45.7896 14.5111 45.0879 13.602 45.0879 12.2733C45.0879 9.65096 47.4388 9.16138 49.6844 9.16138V9.82521ZM52.8072 17.3427C52.7072 17.4296 52.5824 17.4832 52.4502 17.4957C52.3181 17.5083 52.1853 17.4792 52.0706 17.4126C51.0531 16.5734 50.8429 16.1538 50.2812 15.3496C48.597 17.0623 47.3689 17.5873 45.1935 17.5873C42.597 17.5873 40.5619 15.9789 40.5619 12.7971C40.5619 10.2797 41.9303 8.60138 43.8606 7.76213C45.5448 7.02808 47.896 6.88798 49.6852 6.67819V6.29362C49.6852 5.55957 49.7553 4.68521 49.2992 4.05585C48.9133 3.49638 48.2115 3.2517 47.5805 3.2517C46.3875 3.2517 45.3348 3.84606 45.0892 5.10489C45.0191 5.38457 44.8437 5.66436 44.5629 5.66436L41.5804 5.34968C41.3349 5.27979 41.0541 5.105 41.1243 4.72032C41.826 1.08394 45.0892 0 48.0365 0C49.5453 0 51.5102 0.384574 52.7032 1.5384C54.2119 2.93702 54.0716 4.82564 54.0716 6.85309V11.6433C54.0716 13.0769 54.668 13.7063 55.2294 14.5104C55.44 14.7901 55.475 15.1398 55.2294 15.3146C54.5627 15.839 53.44 16.8181 52.8084 17.3426L52.8072 17.3427ZM9.15791 9.82521C9.15791 11.014 9.19303 12.028 8.59647 13.1124C8.1054 13.9866 7.33333 14.5111 6.45612 14.5111C5.26312 14.5111 4.56141 13.602 4.56141 12.2733C4.56141 9.65096 6.91229 9.16138 9.15791 9.16138V9.82521ZM12.2456 17.3427C12.1456 17.4296 12.0207 17.4832 11.8886 17.4957C11.7564 17.5083 11.6237 17.4792 11.509 17.4126C10.4915 16.5734 10.2813 16.1538 9.71955 15.3496C8.03536 17.0623 6.80724 17.5873 4.63187 17.5873C2.03534 17.5873 0.000244141 15.9789 0.000244141 12.7971C0.000244141 10.2797 1.36865 8.60138 3.29901 7.76213C4.9832 7.02808 7.3344 6.88798 9.12353 6.67819V6.29362C9.12353 5.55957 9.19367 4.68521 8.73761 4.05585C8.35168 3.49638 7.64987 3.2517 7.01883 3.2517C5.82583 3.2517 4.77321 3.84606 4.52757 5.10489C4.45743 5.38457 4.28202 5.66436 4.00126 5.66436L1.01881 5.34968C0.773266 5.27979 0.492498 5.105 0.562637 4.72032C1.26435 1.08394 4.52757 0 7.47489 0C8.98368 0 10.9485 0.384574 12.1415 1.5384C13.6503 2.93702 13.5099 4.82564 13.5099 6.85309V11.6433C13.5099 13.0769 14.1064 13.7063 14.6678 14.5104C14.8783 14.7901 14.9133 15.1398 14.6678 15.3146C14.0011 15.839 12.8784 16.8181 12.2468 17.3426L12.2456 17.3427Z" fill="white"/>
</g>
<defs>
<clipPath id="clip0_104_504">
<rect width="100" height="30" fill="white"/>
</clipPath>
</defs>
</svg>
