<svg width="16" height="17" viewBox="0 0 16 17" fill="none" xmlns="http://www.w3.org/2000/svg">
<path fill-rule="evenodd" clip-rule="evenodd" d="M2.82617 7.42753C2.83578 4.60048 5.13535 2.31648 7.9624 2.32606C10.7895 2.33569 13.0735 4.63526 13.0639 7.46232V7.52029C13.0291 9.35797 12.003 11.0565 10.745 12.3841C10.0256 13.1311 9.22218 13.7925 8.35081 14.3551C8.11781 14.5566 7.77221 14.5566 7.53922 14.3551C6.24022 13.5096 5.10013 12.4421 4.1711 11.2014C3.34307 10.1196 2.87295 8.80649 2.82617 7.44493V7.42753Z" stroke="white" stroke-width="1.5" stroke-linecap="round" stroke-linejoin="round"/>
<path d="M7.94487 9.16666C8.85098 9.16666 9.58553 8.43211 9.58553 7.526C9.58553 6.61988 8.85098 5.88533 7.94487 5.88533C7.03875 5.88533 6.3042 6.61988 6.3042 7.526C6.3042 8.43211 7.03875 9.16666 7.94487 9.16666Z" stroke="white" stroke-width="1.5" stroke-linecap="round" stroke-linejoin="round"/>
</svg>
